<?xml version="1.0" encoding="UTF-8"?>
<svg xmlns="http://www.w3.org/2000/svg" viewBox="0 0 282.03 540">
  <defs>
    <style>
      .cls-1 {
        fill: aqua;
      }

      .cls-2 {
        letter-spacing: .03em;
      }

      .cls-3 {
        letter-spacing: 0em;
      }

      .cls-4, .cls-5, .cls-6, .cls-7, .cls-8 {
        fill: #fff;
      }

      .cls-9 {
        fill: none;
        stroke: #fff;
        stroke-miterlimit: 10;
        stroke-width: .5px;
      }

      .cls-10 {
        letter-spacing: 0em;
      }

      .cls-11 {
        fill: #5f859a;
      }

      .cls-5 {
        font-size: 13.35px;
      }

      .cls-5, .cls-8, .cls-12 {
        font-family: SegoeUI-Bold, 'Segoe UI';
        font-weight: 700;
      }

      .cls-13 {
        letter-spacing: 0em;
      }

      .cls-6 {
        font-size: 14.5px;
      }

      .cls-6, .cls-7 {
        font-family: SegoeUI, 'Segoe UI';
      }

      .cls-6, .cls-7, .cls-8 {
        isolation: isolate;
      }

      .cls-14 {
        letter-spacing: 0em;
      }

      .cls-7 {
        font-size: 12px;
      }

      .cls-15 {
        letter-spacing: 0em;
      }

      .cls-16 {
        letter-spacing: .02em;
      }

      .cls-17 {
        letter-spacing: 0em;
      }

      .cls-18 {
        letter-spacing: 0em;
      }

      .cls-8 {
        font-size: 20.91px;
      }

      .cls-19, .cls-12 {
        fill: #1ed760;
      }

      .cls-12 {
        font-size: 9.27px;
      }

      .cls-20 {
        letter-spacing: .03em;
      }
    </style>
  </defs>
  <g id="bg">
    <rect class="cls-11" width="282.03" height="540" rx="5.05" ry="5.05"/>
  </g>
  <g id="txtArtist">
    <text id="txtArtist-2" data-name="txtArtist" class="cls-8" transform="translate(113.5 455.12)"><tspan x="0" y="0">A</tspan><tspan class="cls-20" x="14.7" y="0">r</tspan><tspan class="cls-15" x="23.63" y="0">tist</tspan></text>
  </g>
  <g id="txtSong">
    <text id="txtSong-2" data-name="txtSong" class="cls-6" transform="translate(103.4 476.67)"><tspan x="0" y="0">Song Name</tspan></text>
  </g>
  <g id="coverArea">
    <rect id="coverArea-2" data-name="coverArea" class="cls-1" x="25.15" y="148.46" width="231.73" height="231.73"/>
  </g>
  <g id="progressBg">
    <line id="progressBg-2" data-name="progressBg" class="cls-9" x1="10.42" y1="420.71" x2="271.62" y2="420.71"/>
  </g>
  <g id="progressFg">
    <circle id="progressFg-2" data-name="progressFg" class="cls-19" cx="12.08" cy="420.81" r="3.06"/>
  </g>
  <g id="timeStart">
    <text id="timeStart-2" data-name="timeStart" class="cls-7" transform="translate(15.14 413.36)"><tspan x="0" y="0">00:00</tspan></text>
  </g>
  <g id="timeEnd">
    <text id="timeEnd-2" data-name="timeEnd" class="cls-7" transform="translate(243.14 413.36)"><tspan x="0" y="0">04:10</tspan></text>
  </g>
  <g id="btnPlay">
    <polygon id="btnPlay-2" data-name="btnPlay" class="cls-4" points="133.83 498.13 133.83 517.5 149.23 507.82 133.83 498.13"/>
  </g>
  <g id="btnNext">
    <path id="btnNext-2" data-name="btnNext" class="cls-4" d="M192.29,500.29c-.43,0-.77.34-.77.77v5.87l-10.77-6.77v15.31l10.77-6.77v5.87c0,.43.34.77.77.77s.77-.34.77-.77v-13.51c0-.43-.34-.77-.77-.77h0Z"/>
  </g>
  <g id="btnPrev">
    <path id="btnPrev-2" data-name="btnPrev" class="cls-4" d="M89.91,515.34c.43,0,.77-.34.77-.77v-5.87l10.77,6.77v-15.31l-10.77,6.77v-5.87c0-.43-.34-.77-.77-.77s-.77.34-.77.77v13.51c0,.43.34.77.77.77h0Z"/>
  </g>
  <g id="btnShuffle">
    <path id="btnShuffle-2" data-name="btnShuffle" class="cls-4" d="M233.27,507.73c0-2.98-2.63-5.42-5.88-5.42h-6.03v1.49h6.03c2.36,0,4.27,1.76,4.27,3.94,0,2.99,2.63,5.43,5.88,5.43h.89v2.43l4.92-3.92h-5.81c-2.36,0-4.27-1.76-4.27-3.94ZM243.35,503.52l-4.92-3.92h0v2.44h-.89c-.63,0-1.22.12-1.79.29v1.59c.55-.24,1.15-.4,1.79-.4h5.81ZM221.35,511.39v1.49h6.03c.47,0,.92-.06,1.35-.16v-1.58c-.43.13-.88.25-1.35.25h-6.03Z"/>
  </g>
  <g id="btnRepeatAll">
    <path id="btnRepeatAll-2" data-name="btnRepeatAll" class="cls-4" d="M40.34,507.57h0c0-2.5,1.98-4.51,4.4-4.51h5.31l-4.04-3.46v1.76h-1.27c-3.35,0-6.05,2.79-6.05,6.22s2.72,6.2,6.05,6.2h1.43v-1.69h-1.43c-2.42,0-4.4-2.03-4.4-4.51ZM54.64,501.42h-1.43v1.69h1.43c2.42,0,4.4,2.03,4.4,4.51h0c0,2.5-1.98,4.51-4.4,4.51h-5.31l4.04,3.46v-1.76h1.27c3.33,0,6.05-2.79,6.05-6.22s-2.72-6.2-6.05-6.2Z"/>
  </g>
  <g id="btnRepeatOne">
    <path id="btnRepeatOne-2" data-name="btnRepeatOne" class="cls-4" d="M40.34,507.57h0c0-2.5,1.98-4.51,4.4-4.51h5.31l-4.04-3.46v1.76h-1.27c-3.35,0-6.05,2.79-6.05,6.22s2.72,6.2,6.05,6.2h1.43v-1.69h-1.43c-2.42,0-4.4-2.03-4.4-4.51ZM54.64,501.42h-1.43v1.69h1.43c2.42,0,4.4,2.03,4.4,4.51h0c0,2.5-1.98,4.51-4.4,4.51h-5.31l4.04,3.46v-1.76h1.27c3.33,0,6.05-2.79,6.05-6.22s-2.72-6.2-6.05-6.2ZM50.53,510.17v-5.67h-.74c-.23.17-.48.33-.76.48-.28.14-.58.26-.9.36v1.03c.11-.01.22-.03.33-.06.11-.03.22-.07.32-.11.1-.04.2-.09.29-.14.09-.05.17-.11.24-.17v4.3h1.22Z"/>
  </g>
  <g id="logoSpotify">
    <path id="logoSpotify-2" data-name="logoSpotify" class="cls-19" d="M76.67,26.94c-8.38,0-15.17,6.8-15.17,15.17s6.8,15.17,15.17,15.17,15.17-6.8,15.17-15.17-6.8-15.17-15.17-15.17h0ZM83.62,48.82c-.27.44-.86.59-1.3.31-3.56-2.17-8.05-2.67-13.33-1.46-.51.12-1.01-.2-1.13-.71-.12-.51.2-1.01.71-1.13,5.78-1.32,10.73-.75,14.74,1.69.44.28.59.86.31,1.3ZM85.48,44.69c-.34.56-1.07.73-1.63.39-4.08-2.51-10.3-3.23-15.12-1.77-.63.19-1.28-.16-1.48-.79-.19-.63.16-1.28.79-1.48,5.51-1.67,12.36-.86,17.04,2.02.56.34.73,1.07.39,1.63h0ZM85.64,40.38c-4.89-2.91-12.96-3.17-17.62-1.75-.75.23-1.54-.19-1.77-.95-.23-.75.19-1.54.95-1.77,5.36-1.63,14.27-1.32,19.9,2.03.68.4.9,1.27.49,1.94-.4.68-1.27.9-1.94.49h0Z"/>
  </g>
  <g id="SpotifyControlPlayer">
    <text id="txtSong-3" data-name="txtSong" class="cls-5" transform="translate(96.19 40.17)"><tspan x="0" y="0">Spoti</tspan><tspan class="cls-16" x="32.92" y="0">f</tspan><tspan x="38.31" y="0">y Cont</tspan><tspan class="cls-18" x="78.95" y="0">r</tspan><tspan class="cls-3" x="84.21" y="0">ol Pla</tspan><tspan class="cls-14" x="119.03" y="0">y</tspan><tspan class="cls-3" x="126.09" y="0">er</tspan></text>
  </g>
  <g id="labelCredit">
    <text id="txtSong-4" data-name="txtSong" class="cls-12" transform="translate(172.15 54.92)"><tspan x="0" y="0">@a</tspan><tspan class="cls-2" x="13.83" y="0">r</tspan><tspan class="cls-10" x="17.78" y="0">t</tspan><tspan x="21.35" y="0">esdo</tspan><tspan class="cls-17" x="41.85" y="0">r</tspan><tspan class="cls-13" x="45.5" y="0">obb</tspan></text>
  </g>
  <g id="btnOpenPlayer">
    <path id="btnOpenPlayer-2" data-name="btnOpenPlayer" class="cls-4" d="M184.84,80.89h-87.65c-10.04,0-18.21,8.16-18.21,18.2s8.17,18.21,18.21,18.21h87.65c10.04,0,18.21-8.17,18.21-18.21s-8.17-18.2-18.21-18.2ZM184.84,116.29h-87.65c-9.49,0-17.21-7.72-17.21-17.21s7.72-17.2,17.21-17.2h87.65c9.49,0,17.21,7.72,17.21,17.2s-7.72,17.21-17.21,17.21ZM97.79,92.6l-3.7,10.16h2.48l.72-2.26h3.61l.72,2.26h2.49l-3.61-10.16h-2.71ZM97.78,98.74l1.1-3.44c.09-.29.15-.59.18-.89h.06c.03.35.09.66.17.91l1.09,3.41h-2.6ZM109.79,95.33c-1.02,0-1.81.42-2.36,1.27h-.03v-4.58h-2.24v10.74h2.24v-.84h.03c.46.68,1.13,1.02,2.03,1.02.99,0,1.78-.37,2.37-1.1.59-.73.89-1.7.89-2.91,0-1.11-.25-1.99-.76-2.63-.51-.64-1.23-.96-2.16-.96ZM109.99,100.63c-.28.39-.68.59-1.19.59-.42,0-.77-.15-1.03-.46-.27-.31-.4-.69-.4-1.16v-.74c0-.54.15-.98.44-1.31.29-.33.67-.5,1.12-.5.48,0,.84.17,1.1.51.26.34.39.81.39,1.41,0,.72-.14,1.28-.42,1.67ZM116.43,96.85h-.03v-1.35h-2.24v7.25h2.24v-3.46c0-.61.14-1.1.41-1.46.27-.36.65-.53,1.14-.53.36,0,.67.07.94.22v-2.06c-.13-.06-.32-.08-.55-.08-.92,0-1.56.49-1.91,1.47ZM121.12,92.05c-.38,0-.69.11-.93.32s-.36.49-.36.82.12.6.36.82c.24.22.55.34.93.34s.69-.11.93-.33.36-.5.36-.84-.12-.61-.36-.82-.55-.32-.93-.32ZM119.99,102.76h2.24v-7.25h-2.24v7.25ZM126.38,96.85h-.03v-1.35h-2.24v7.25h2.24v-3.46c0-.61.14-1.1.41-1.46.27-.36.65-.53,1.14-.53.36,0,.67.07.94.22v-2.06c-.13-.06-.32-.08-.55-.08-.92,0-1.56.49-1.91,1.47ZM137.44,95.33c-1.22,0-2.19.34-2.91,1.02s-1.08,1.62-1.08,2.82.35,2.08,1.04,2.76c.69.68,1.64,1.02,2.85,1.02s2.19-.35,2.9-1.05,1.06-1.65,1.06-2.85c0-1.11-.34-2.01-1.03-2.69s-1.63-1.02-2.83-1.02ZM137.41,101.22c-1.12,0-1.69-.7-1.69-2.09,0-.67.15-1.18.44-1.54.29-.36.7-.55,1.23-.55,1.08,0,1.62.68,1.62,2.03,0,1.43-.54,2.15-1.61,2.15ZM150.56,92.6h-3.58v10.16h2.29v-3.5h1.09c1.23,0,2.21-.32,2.94-.95.73-.63,1.1-1.46,1.1-2.48,0-2.16-1.28-3.24-3.84-3.24ZM150.16,97.52h-.9v-3.17h.9c1.22,0,1.83.52,1.83,1.57s-.61,1.6-1.83,1.6ZM155.67,102.76h2.24v-10.74h-2.24v10.74ZM162.72,95.33c-.44,0-.94.06-1.48.18-.54.12-.97.26-1.28.42v1.69c.78-.51,1.6-.77,2.46-.77s1.29.4,1.29,1.19l-1.97.26c-1.67.22-2.5,1.03-2.5,2.44,0,.67.2,1.2.61,1.6s.96.6,1.66.6c.95,0,1.67-.41,2.16-1.22h.03v1.04h2.12v-4.33c0-2.06-1.03-3.1-3.1-3.1ZM163.72,99.81c0,.44-.13.81-.4,1.1-.26.29-.61.44-1.03.44-.3,0-.54-.08-.72-.24-.18-.16-.27-.37-.27-.63,0-.56.36-.89,1.09-.98l1.32-.17v.49ZM170.91,99.93c-.11.36-.19.68-.23.96h-.03c-.05-.37-.11-.7-.2-.97l-1.35-4.41h-2.48l2.95,7.24-.38.9c-.23.54-.63.81-1.2.81-.35,0-.67-.09-.97-.26v1.79c.35.12.8.18,1.34.18,1.43,0,2.49-.94,3.2-2.83l2.95-7.83h-2.22l-1.37,4.43ZM178.45,95.33c-1.02,0-1.88.35-2.58,1.06s-1.05,1.66-1.05,2.86.32,2.07.97,2.72c.65.65,1.56.97,2.73.97,1.07,0,1.94-.18,2.61-.54v-1.61c-.6.38-1.31.57-2.1.57-1.25,0-1.91-.53-1.99-1.58h4.73v-.94c0-1.08-.29-1.93-.87-2.56-.58-.63-1.4-.94-2.45-.94ZM177.03,98.39c.06-.44.22-.81.48-1.11.26-.3.57-.45.93-.45.84,0,1.26.52,1.26,1.56h-2.67ZM185.37,96.85h-.03v-1.35h-2.24v7.25h2.24v-3.46c0-.61.14-1.1.41-1.46.27-.36.65-.53,1.14-.53.36,0,.67.07.94.22v-2.06c-.13-.06-.32-.08-.55-.08-.92,0-1.56.49-1.91,1.47Z"/>
  </g>
</svg>